# MagicaVoxel @ Ephtracy

# group
o 

# material
mtllib desk.mtl
usemtl palette

# normals
vn -1 0 0
vn 1 0 0
vn 0 0 1
vn 0 0 -1
vn 0 -1 0
vn 0 1 0

# texcoords
vt 0.0332031 0.5
vt 0.0371094 0.5
vt 0.0410156 0.5
vt 0.0488281 0.5
vt 0.0644531 0.5
vt 0.0683594 0.5
vt 0.0722656 0.5
vt 0.0957031 0.5
vt 0.0996094 0.5

# verts
v -1.7 0 -1.1
v -1.7 0 -2
v -1.7 1.8 -1.1
v -1.7 1.8 -2
v -1.4 1.8 -1.4
v -1.4 1.8 -1.7
v -1.4 1.9 -1.4
v -1.4 1.9 -1.7
v -1.4 2.4 -1.5
v -1.4 2.4 -1.6
v -1.4 2.8 -1.5
v -1.4 2.8 -1.6
v -1.3 1.4 -1
v -1.3 1.4 -1.1
v -1.3 1.5 -1
v -1.3 1.5 -1.1
v -1.3 1.8 -1.3
v -1.3 1.8 -1.4
v -1.3 1.8 -1.7
v -1.3 1.8 -1.8
v -1.3 1.9 -1.3
v -1.3 1.9 -1.4
v -1.3 1.9 -1.7
v -1.3 1.9 -1.8
v -1.3 2 -1.4
v -1.3 2 -1.7
v -1.3 2.3 -1.5
v -1.3 2.3 -1.6
v -1.3 2.4 -1.5
v -1.3 2.4 -1.6
v -1.3 2.8 -1.5
v -1.3 2.8 -1.6
v -1.3 2.9 -1.5
v -1.3 2.9 -1.6
v -1.2 2 -1.5
v -1.2 2 -1.6
v -1.2 2.3 -1.5
v -1.2 2.3 -1.6
v -1.2 2.9 -1.5
v -1.2 2.9 -1.6
v -1.2 3.1 -1.5
v -1.2 3.1 -1.6
v -1.1 3.1 -1.5
v -1.1 3.1 -1.6
v -1.1 3.2 -1.5
v -1.1 3.2 -1.6
v -1 3.2 -1.5
v -1 3.2 -1.6
v -1 3.3 -1.5
v -1 3.3 -1.6
v -0.9 3.3 -1.5
v -0.9 3.3 -1.6
v -0.9 3.4 -1.5
v -0.9 3.4 -1.6
v -0.7 2.8 -1.4
v -0.7 2.8 -1.7
v -0.7 3 -1.4
v -0.7 3 -1.7
v -0.6 0.7 -1
v -0.6 0.7 -1.1
v -0.6 0.8 -1
v -0.6 0.8 -1.1
v -0.6 2.7 -1.4
v -0.6 2.7 -1.7
v -0.6 2.8 -1.3
v -0.6 2.8 -1.4
v -0.6 2.8 -1.7
v -0.6 2.8 -1.8
v -0.6 3 -1.3
v -0.6 3 -1.4
v -0.6 3 -1.5
v -0.6 3 -1.6
v -0.6 3 -1.7
v -0.6 3 -1.8
v -0.6 3.1 -1.5
v -0.6 3.1 -1.6
v -0.6 3.2 -1.5
v -0.6 3.2 -1.6
v -0.6 3.3 -1.5
v -0.6 3.3 -1.6
v -0.5 3.1 -1.5
v -0.5 3.1 -1.6
v -0.5 3.2 -1.5
v -0.5 3.2 -1.6
v -0.4 2.8 -1.5
v -0.4 2.8 -1.6
v -0.4 3 -1.5
v -0.4 3 -1.6
v 0.3 1.4 -1
v 0.3 1.4 -1.1
v 0.3 1.5 -1
v 0.3 1.5 -1.1
v 0.9 1.8 -1.3
v 0.9 1.8 -1.7
v 0.9 2.2 -1.3
v 0.9 2.2 -1.7
v 0.9 2.6 -1.3
v 0.9 2.6 -1.6
v 0.9 2.7 -1.4
v 0.9 2.7 -1.5
v 0.9 2.8 -1.3
v 0.9 2.8 -1.4
v 0.9 2.8 -1.5
v 0.9 2.8 -1.6
v 1 0 -1.1
v 1 0 -2
v 1 0.2 -1.1
v 1 0.2 -2
v 1 2.5 -1.5
v 1 2.5 -1.6
v 1 2.6 -1.5
v 1 2.6 -1.6
v 1 2.8 -1.3
v 1 2.8 -1.4
v 1 2.8 -1.5
v 1 2.8 -1.6
v 1 2.9 -1.3
v 1 2.9 -1.4
v 1 2.9 -1.5
v 1 2.9 -1.6
v 1.1 2.2 -1.5
v 1.1 2.2 -1.6
v 1.1 2.5 -1.5
v 1.1 2.5 -1.6
v -1.3 2.5 -1.5
v -1.3 2.5 -1.6
v -1.3 2.7 -1.5
v -1.3 2.7 -1.6
v -1.2 2.4 -1.5
v -1.2 2.4 -1.6
v -1.2 2.5 -1.5
v -1.2 2.5 -1.6
v -1.2 2.7 -1.5
v -1.2 2.7 -1.6
v -1.2 2.8 -1.5
v -1.2 2.8 -1.6
v -1.1 0 -1.1
v -1.1 0 -2
v -1.1 0.2 -1.1
v -1.1 0.2 -2
v -1.1 2 -1.5
v -1.1 2 -1.6
v -1.1 2.4 -1.5
v -1.1 2.4 -1.6
v -1.1 2.8 -1.5
v -1.1 2.8 -1.6
v -1.1 3 -1.5
v -1.1 3 -1.6
v -1 1.8 -1.3
v -1 1.8 -1.4
v -1 1.8 -1.7
v -1 1.8 -1.8
v -1 1.9 -1.3
v -1 1.9 -1.4
v -1 1.9 -1.7
v -1 1.9 -1.8
v -1 2 -1.4
v -1 2 -1.7
v -1 3 -1.5
v -1 3 -1.6
v -1 3.1 -1.5
v -1 3.1 -1.6
v -0.9 1.8 -1.4
v -0.9 1.8 -1.7
v -0.9 1.9 -1.4
v -0.9 1.9 -1.7
v -0.9 3.1 -1.5
v -0.9 3.1 -1.6
v -0.9 3.2 -1.5
v -0.9 3.2 -1.6
v -0.8 3.2 -1.5
v -0.8 3.2 -1.6
v -0.8 3.3 -1.5
v -0.8 3.3 -1.6
v -0.6 2.8 -1.5
v -0.6 2.8 -1.6
v -0.6 2.9 -1.5
v -0.6 2.9 -1.6
v -0.5 2.9 -1.5
v -0.5 2.9 -1.6
v -0.5 3 -1.5
v -0.5 3 -1.6
v -0.5 3.3 -1.5
v -0.5 3.3 -1.6
v -0.5 3.4 -1.5
v -0.5 3.4 -1.6
v -0.4 1.4 -1
v -0.4 1.4 -1.1
v -0.4 1.5 -1
v -0.4 1.5 -1.1
v -0.4 3.1 -1.5
v -0.4 3.1 -1.6
v -0.4 3.3 -1.5
v -0.4 3.3 -1.6
v -0.3 2.7 -1.4
v -0.3 2.7 -1.7
v -0.3 2.8 -1.3
v -0.3 2.8 -1.4
v -0.3 2.8 -1.7
v -0.3 2.8 -1.8
v -0.3 3 -1.3
v -0.3 3 -1.4
v -0.3 3 -1.5
v -0.3 3 -1.6
v -0.3 3 -1.7
v -0.3 3 -1.8
v -0.3 3.1 -1.5
v -0.3 3.1 -1.6
v -0.2 2.8 -1.4
v -0.2 2.8 -1.7
v -0.2 3 -1.4
v -0.2 3 -1.7
v 0.5 0.7 -1
v 0.5 0.7 -1.1
v 0.5 0.8 -1
v 0.5 0.8 -1.1
v 1.2 1.4 -1
v 1.2 1.4 -1.1
v 1.2 1.5 -1
v 1.2 1.5 -1.1
v 1.2 2.2 -1.5
v 1.2 2.2 -1.6
v 1.2 2.6 -1.3
v 1.2 2.6 -1.5
v 1.2 2.6 -1.6
v 1.2 2.9 -1.3
v 1.2 2.9 -1.6
v 1.3 1.8 -1.3
v 1.3 1.8 -1.7
v 1.3 2.2 -1.3
v 1.3 2.2 -1.7
v 1.6 0 -1.1
v 1.6 0 -2
v 1.6 1.8 -1.1
v 1.6 1.8 -2
v -1.3 1.4 -1
v -1.3 1.5 -1
v -0.6 0.7 -1
v -0.6 0.8 -1
v -0.4 1.4 -1
v -0.4 1.5 -1
v 0.3 1.4 -1
v 0.3 1.5 -1
v 0.5 0.7 -1
v 0.5 0.8 -1
v 1.2 1.4 -1
v 1.2 1.5 -1
v -1.7 0 -1.1
v -1.7 1.8 -1.1
v -1.6 0.4 -1.1
v -1.6 1 -1.1
v -1.6 1.1 -1.1
v -1.6 1.7 -1.1
v -1.3 1.4 -1.1
v -1.3 1.5 -1.1
v -1.1 0 -1.1
v -1.1 0.2 -1.1
v -0.6 0.7 -1.1
v -0.6 0.8 -1.1
v -0.4 1.4 -1.1
v -0.4 1.5 -1.1
v -0.1 1.1 -1.1
v -0.1 1.7 -1.1
v 0 1.1 -1.1
v 0 1.7 -1.1
v 0.3 1.4 -1.1
v 0.3 1.5 -1.1
v 0.5 0.7 -1.1
v 0.5 0.8 -1.1
v 1 0 -1.1
v 1 0.2 -1.1
v 1.2 1.4 -1.1
v 1.2 1.5 -1.1
v 1.5 0.4 -1.1
v 1.5 1 -1.1
v 1.5 1.1 -1.1
v 1.5 1.7 -1.1
v 1.6 0 -1.1
v 1.6 1.8 -1.1
v -1.3 1.8 -1.3
v -1.3 1.9 -1.3
v -1 1.8 -1.3
v -1 1.9 -1.3
v -0.6 2.8 -1.3
v -0.6 3 -1.3
v -0.3 2.8 -1.3
v -0.3 3 -1.3
v 0.9 1.8 -1.3
v 0.9 2.2 -1.3
v 0.9 2.6 -1.3
v 0.9 2.8 -1.3
v 1 2.8 -1.3
v 1 2.9 -1.3
v 1.2 2.6 -1.3
v 1.2 2.9 -1.3
v 1.3 1.8 -1.3
v 1.3 2.2 -1.3
v -1.4 1.8 -1.4
v -1.4 1.9 -1.4
v -1.3 1.8 -1.4
v -1.3 1.9 -1.4
v -1.3 2 -1.4
v -1 1.8 -1.4
v -1 1.9 -1.4
v -1 2 -1.4
v -0.9 1.8 -1.4
v -0.9 1.9 -1.4
v -0.7 2.8 -1.4
v -0.7 3 -1.4
v -0.6 2.7 -1.4
v -0.6 2.8 -1.4
v -0.6 3 -1.4
v -0.3 2.7 -1.4
v -0.3 2.8 -1.4
v -0.3 3 -1.4
v -0.2 2.8 -1.4
v -0.2 3 -1.4
v -1.4 2.4 -1.5
v -1.4 2.8 -1.5
v -1.3 2.3 -1.5
v -1.3 2.4 -1.5
v -1.3 2.5 -1.5
v -1.3 2.7 -1.5
v -1.3 2.8 -1.5
v -1.3 2.9 -1.5
v -1.2 2 -1.5
v -1.2 2.3 -1.5
v -1.2 2.4 -1.5
v -1.2 2.5 -1.5
v -1.2 2.7 -1.5
v -1.2 2.8 -1.5
v -1.2 2.9 -1.5
v -1.2 3.1 -1.5
v -1.1 2 -1.5
v -1.1 2.4 -1.5
v -1.1 2.8 -1.5
v -1.1 3 -1.5
v -1.1 3.1 -1.5
v -1.1 3.2 -1.5
v -1 3 -1.5
v -1 3.1 -1.5
v -1 3.2 -1.5
v -1 3.3 -1.5
v -0.9 3.1 -1.5
v -0.9 3.2 -1.5
v -0.9 3.3 -1.5
v -0.9 3.4 -1.5
v -0.8 3.2 -1.5
v -0.8 3.3 -1.5
v -0.6 3 -1.5
v -0.6 3.1 -1.5
v -0.6 3.2 -1.5
v -0.6 3.3 -1.5
v -0.5 3.1 -1.5
v -0.5 3.2 -1.5
v -0.5 3.3 -1.5
v -0.5 3.4 -1.5
v -0.4 3.1 -1.5
v -0.4 3.3 -1.5
v -0.3 3 -1.5
v -0.3 3.1 -1.5
v 1 2.5 -1.5
v 1 2.6 -1.5
v 1.1 2.2 -1.5
v 1.1 2.5 -1.5
v 1.2 2.2 -1.5
v 1.2 2.6 -1.5
v -0.6 2.8 -1.6
v -0.6 2.9 -1.6
v -0.5 2.9 -1.6
v -0.5 3 -1.6
v -0.4 2.8 -1.6
v -0.4 3 -1.6
v -0.6 2.8 -1.5
v -0.6 2.9 -1.5
v -0.5 2.9 -1.5
v -0.5 3 -1.5
v -0.4 2.8 -1.5
v -0.4 3 -1.5
v -1.4 2.4 -1.6
v -1.4 2.8 -1.6
v -1.3 2.3 -1.6
v -1.3 2.4 -1.6
v -1.3 2.5 -1.6
v -1.3 2.7 -1.6
v -1.3 2.8 -1.6
v -1.3 2.9 -1.6
v -1.2 2 -1.6
v -1.2 2.3 -1.6
v -1.2 2.4 -1.6
v -1.2 2.5 -1.6
v -1.2 2.7 -1.6
v -1.2 2.8 -1.6
v -1.2 2.9 -1.6
v -1.2 3.1 -1.6
v -1.1 2 -1.6
v -1.1 2.4 -1.6
v -1.1 2.8 -1.6
v -1.1 3 -1.6
v -1.1 3.1 -1.6
v -1.1 3.2 -1.6
v -1 3 -1.6
v -1 3.1 -1.6
v -1 3.2 -1.6
v -1 3.3 -1.6
v -0.9 3.1 -1.6
v -0.9 3.2 -1.6
v -0.9 3.3 -1.6
v -0.9 3.4 -1.6
v -0.8 3.2 -1.6
v -0.8 3.3 -1.6
v -0.6 3 -1.6
v -0.6 3.1 -1.6
v -0.6 3.2 -1.6
v -0.6 3.3 -1.6
v -0.5 3.1 -1.6
v -0.5 3.2 -1.6
v -0.5 3.3 -1.6
v -0.5 3.4 -1.6
v -0.4 3.1 -1.6
v -0.4 3.3 -1.6
v -0.3 3 -1.6
v -0.3 3.1 -1.6
v 0.9 2.6 -1.6
v 0.9 2.8 -1.6
v 1 2.5 -1.6
v 1 2.6 -1.6
v 1 2.8 -1.6
v 1 2.9 -1.6
v 1.1 2.2 -1.6
v 1.1 2.5 -1.6
v 1.2 2.2 -1.6
v 1.2 2.6 -1.6
v 1.2 2.9 -1.6
v -1.4 1.8 -1.7
v -1.4 1.9 -1.7
v -1.3 1.8 -1.7
v -1.3 1.9 -1.7
v -1.3 2 -1.7
v -1 1.8 -1.7
v -1 1.9 -1.7
v -1 2 -1.7
v -0.9 1.8 -1.7
v -0.9 1.9 -1.7
v -0.7 2.8 -1.7
v -0.7 3 -1.7
v -0.6 2.7 -1.7
v -0.6 2.8 -1.7
v -0.6 3 -1.7
v -0.3 2.7 -1.7
v -0.3 2.8 -1.7
v -0.3 3 -1.7
v -0.2 2.8 -1.7
v -0.2 3 -1.7
v 0.9 1.8 -1.7
v 0.9 2.2 -1.7
v 1.3 1.8 -1.7
v 1.3 2.2 -1.7
v -1.3 1.8 -1.8
v -1.3 1.9 -1.8
v -1 1.8 -1.8
v -1 1.9 -1.8
v -0.6 2.8 -1.8
v -0.6 3 -1.8
v -0.3 2.8 -1.8
v -0.3 3 -1.8
v -1.7 0 -2
v -1.7 1.8 -2
v -1.1 0 -2
v -1.1 0.2 -2
v 1 0 -2
v 1 0.2 -2
v 1.6 0 -2
v 1.6 1.8 -2
v -1.7 0 -1.1
v -1.1 0 -1.1
v 1 0 -1.1
v 1.6 0 -1.1
v -1.7 0 -2
v -1.1 0 -2
v 1 0 -2
v 1.6 0 -2
v -1.1 0.2 -1.1
v 1 0.2 -1.1
v -1.1 0.2 -2
v 1 0.2 -2
v -0.6 0.7 -1
v 0.5 0.7 -1
v -0.6 0.7 -1.1
v 0.5 0.7 -1.1
v -1.3 1.4 -1
v -0.4 1.4 -1
v 0.3 1.4 -1
v 1.2 1.4 -1
v -1.3 1.4 -1.1
v -0.4 1.4 -1.1
v 0.3 1.4 -1.1
v 1.2 1.4 -1.1
v -1.3 2.3 -1.5
v -1.2 2.3 -1.5
v -1.3 2.3 -1.6
v -1.2 2.3 -1.6
v -1.4 2.4 -1.5
v -1.3 2.4 -1.5
v -1.4 2.4 -1.6
v -1.3 2.4 -1.6
v 1 2.5 -1.5
v 1.1 2.5 -1.5
v 1 2.5 -1.6
v 1.1 2.5 -1.6
v 0.9 2.6 -1.3
v 1.2 2.6 -1.3
v 1 2.6 -1.5
v 1.2 2.6 -1.5
v 0.9 2.6 -1.6
v 1 2.6 -1.6
v -0.6 2.7 -1.4
v -0.3 2.7 -1.4
v -1.3 2.7 -1.5
v -1.2 2.7 -1.5
v -1.3 2.7 -1.6
v -1.2 2.7 -1.6
v -0.6 2.7 -1.7
v -0.3 2.7 -1.7
v -0.6 2.8 -1.3
v -0.3 2.8 -1.3
v -0.7 2.8 -1.4
v -0.6 2.8 -1.4
v -0.3 2.8 -1.4
v -0.2 2.8 -1.4
v -1.2 2.8 -1.5
v -1.1 2.8 -1.5
v -1.2 2.8 -1.6
v -1.1 2.8 -1.6
v -0.7 2.8 -1.7
v -0.6 2.8 -1.7
v -0.3 2.8 -1.7
v -0.2 2.8 -1.7
v -0.6 2.8 -1.8
v -0.3 2.8 -1.8
v -0.6 2.9 -1.5
v -0.5 2.9 -1.5
v -0.6 2.9 -1.6
v -0.5 2.9 -1.6
v -1.1 3 -1.5
v -1 3 -1.5
v -0.5 3 -1.5
v -0.4 3 -1.5
v -1.1 3 -1.6
v -1 3 -1.6
v -0.5 3 -1.6
v -0.4 3 -1.6
v -1 3.1 -1.5
v -0.9 3.1 -1.5
v -1 3.1 -1.6
v -0.9 3.1 -1.6
v -0.9 3.2 -1.5
v -0.8 3.2 -1.5
v -0.6 3.2 -1.5
v -0.5 3.2 -1.5
v -0.9 3.2 -1.6
v -0.8 3.2 -1.6
v -0.6 3.2 -1.6
v -0.5 3.2 -1.6
v -0.8 3.3 -1.5
v -0.6 3.3 -1.5
v -0.8 3.3 -1.6
v -0.6 3.3 -1.6
v -0.6 0.8 -1
v 0.5 0.8 -1
v -0.6 0.8 -1.1
v 0.5 0.8 -1.1
v -1.3 1.5 -1
v -0.4 1.5 -1
v 0.3 1.5 -1
v 1.2 1.5 -1
v -1.3 1.5 -1.1
v -0.4 1.5 -1.1
v 0.3 1.5 -1.1
v 1.2 1.5 -1.1
v -1.7 1.8 -1.1
v 1.6 1.8 -1.1
v -1.3 1.8 -1.3
v -1 1.8 -1.3
v 0.9 1.8 -1.3
v 1.3 1.8 -1.3
v -1.4 1.8 -1.4
v -1.3 1.8 -1.4
v -1 1.8 -1.4
v -0.9 1.8 -1.4
v -1.4 1.8 -1.7
v -1.3 1.8 -1.7
v -1 1.8 -1.7
v -0.9 1.8 -1.7
v 0.9 1.8 -1.7
v 1.3 1.8 -1.7
v -1.3 1.8 -1.8
v -1 1.8 -1.8
v -1.7 1.8 -2
v 1.6 1.8 -2
v -1.3 1.9 -1.3
v -1 1.9 -1.3
v -1.4 1.9 -1.4
v -1.3 1.9 -1.4
v -1 1.9 -1.4
v -0.9 1.9 -1.4
v -1.4 1.9 -1.7
v -1.3 1.9 -1.7
v -1 1.9 -1.7
v -0.9 1.9 -1.7
v -1.3 1.9 -1.8
v -1 1.9 -1.8
v -1.3 2 -1.4
v -1 2 -1.4
v -1.2 2 -1.5
v -1.1 2 -1.5
v -1.2 2 -1.6
v -1.1 2 -1.6
v -1.3 2 -1.7
v -1 2 -1.7
v 0.9 2.2 -1.3
v 1.3 2.2 -1.3
v 1 2.2 -1.4
v 1.2 2.2 -1.4
v 1.1 2.2 -1.5
v 1.2 2.2 -1.5
v 1 2.2 -1.6
v 1.1 2.2 -1.6
v 1.2 2.2 -1.6
v 0.9 2.2 -1.7
v 1.3 2.2 -1.7
v -1.2 2.4 -1.5
v -1.1 2.4 -1.5
v -1.2 2.4 -1.6
v -1.1 2.4 -1.6
v -1.3 2.5 -1.5
v -1.2 2.5 -1.5
v -1.3 2.5 -1.6
v -1.2 2.5 -1.6
v 0.9 2.8 -1.3
v 1 2.8 -1.3
v 0.9 2.8 -1.4
v 1 2.8 -1.4
v -1.4 2.8 -1.5
v -1.3 2.8 -1.5
v -0.6 2.8 -1.5
v -0.4 2.8 -1.5
v 0.9 2.8 -1.5
v 1 2.8 -1.5
v -1.4 2.8 -1.6
v -1.3 2.8 -1.6
v -0.6 2.8 -1.6
v -0.4 2.8 -1.6
v 0.9 2.8 -1.6
v 1 2.8 -1.6
v 1 2.9 -1.3
v 1.2 2.9 -1.3
v 1 2.9 -1.4
v 1.1 2.9 -1.4
v -1.3 2.9 -1.5
v -1.2 2.9 -1.5
v 1 2.9 -1.5
v 1.1 2.9 -1.5
v -1.3 2.9 -1.6
v -1.2 2.9 -1.6
v 1 2.9 -1.6
v 1.2 2.9 -1.6
v -0.6 3 -1.3
v -0.3 3 -1.3
v -0.7 3 -1.4
v -0.6 3 -1.4
v -0.3 3 -1.4
v -0.2 3 -1.4
v -0.6 3 -1.5
v -0.3 3 -1.5
v -0.6 3 -1.6
v -0.3 3 -1.6
v -0.7 3 -1.7
v -0.6 3 -1.7
v -0.3 3 -1.7
v -0.2 3 -1.7
v -0.6 3 -1.8
v -0.3 3 -1.8
v -1.2 3.1 -1.5
v -1.1 3.1 -1.5
v -0.6 3.1 -1.5
v -0.5 3.1 -1.5
v -0.4 3.1 -1.5
v -0.3 3.1 -1.5
v -1.2 3.1 -1.6
v -1.1 3.1 -1.6
v -0.6 3.1 -1.6
v -0.5 3.1 -1.6
v -0.4 3.1 -1.6
v -0.3 3.1 -1.6
v -1.1 3.2 -1.5
v -1 3.2 -1.5
v -1.1 3.2 -1.6
v -1 3.2 -1.6
v -1 3.3 -1.5
v -0.9 3.3 -1.5
v -0.5 3.3 -1.5
v -0.4 3.3 -1.5
v -1 3.3 -1.6
v -0.9 3.3 -1.6
v -0.5 3.3 -1.6
v -0.4 3.3 -1.6
v -0.9 3.4 -1.5
v -0.5 3.4 -1.5
v -0.9 3.4 -1.6
v -0.5 3.4 -1.6

# faces
f 3/1/1 2/1/1 1/1/1
f 4/1/1 2/1/1 3/1/1
f 7/8/1 6/8/1 5/8/1
f 8/8/1 6/8/1 7/8/1
f 11/8/1 10/8/1 9/8/1
f 12/8/1 10/8/1 11/8/1
f 15/3/1 14/3/1 13/3/1
f 16/3/1 14/3/1 15/3/1
f 21/8/1 18/8/1 17/8/1
f 22/8/1 18/8/1 21/8/1
f 23/8/1 20/8/1 19/8/1
f 24/8/1 20/8/1 23/8/1
f 25/8/1 23/8/1 22/8/1
f 26/8/1 23/8/1 25/8/1
f 29/8/1 28/8/1 27/8/1
f 30/8/1 28/8/1 29/8/1
f 33/8/1 32/8/1 31/8/1
f 34/8/1 32/8/1 33/8/1
f 37/8/1 36/8/1 35/8/1
f 38/8/1 36/8/1 37/8/1
f 41/8/1 40/8/1 39/8/1
f 42/8/1 40/8/1 41/8/1
f 45/8/1 44/8/1 43/8/1
f 46/8/1 44/8/1 45/8/1
f 49/8/1 48/8/1 47/8/1
f 50/8/1 48/8/1 49/8/1
f 53/8/1 52/8/1 51/8/1
f 54/8/1 52/8/1 53/8/1
f 57/8/1 56/8/1 55/8/1
f 58/8/1 56/8/1 57/8/1
f 61/3/1 60/3/1 59/3/1
f 62/3/1 60/3/1 61/3/1
f 66/9/1 64/9/1 63/9/1
f 67/9/1 64/9/1 66/9/1
f 69/8/1 66/8/1 65/8/1
f 70/8/1 66/8/1 69/8/1
f 73/8/1 68/8/1 67/8/1
f 74/8/1 68/8/1 73/8/1
f 75/8/1 72/8/1 71/8/1
f 76/8/1 72/8/1 75/8/1
f 79/8/1 78/8/1 77/8/1
f 80/8/1 78/8/1 79/8/1
f 83/8/1 82/8/1 81/8/1
f 84/8/1 82/8/1 83/8/1
f 87/8/1 86/8/1 85/8/1
f 88/8/1 86/8/1 87/8/1
f 91/3/1 90/3/1 89/3/1
f 92/3/1 90/3/1 91/3/1
f 95/4/1 94/4/1 93/4/1
f 96/4/1 94/4/1 95/4/1
f 99/6/1 98/6/1 97/6/1
f 100/6/1 98/6/1 99/6/1
f 101/6/1 99/6/1 97/6/1
f 102/7/1 100/7/1 99/7/1
f 102/6/1 99/6/1 101/6/1
f 103/6/1 98/6/1 100/6/1
f 103/7/1 100/7/1 102/7/1
f 104/6/1 98/6/1 103/6/1
f 107/1/1 106/1/1 105/1/1
f 108/1/1 106/1/1 107/1/1
f 111/5/1 110/5/1 109/5/1
f 112/5/1 110/5/1 111/5/1
f 117/6/1 114/6/1 113/6/1
f 118/7/1 115/7/1 114/7/1
f 118/6/1 114/6/1 117/6/1
f 119/6/1 116/6/1 115/6/1
f 119/7/1 115/7/1 118/7/1
f 120/6/1 116/6/1 119/6/1
f 123/5/1 122/5/1 121/5/1
f 124/5/1 122/5/1 123/5/1
f 125/8/2 126/8/2 127/8/2
f 127/8/2 126/8/2 128/8/2
f 129/8/2 130/8/2 131/8/2
f 131/8/2 130/8/2 132/8/2
f 133/8/2 134/8/2 135/8/2
f 135/8/2 134/8/2 136/8/2
f 137/1/2 138/1/2 139/1/2
f 139/1/2 138/1/2 140/1/2
f 141/8/2 142/8/2 143/8/2
f 143/8/2 142/8/2 144/8/2
f 145/8/2 146/8/2 147/8/2
f 147/8/2 146/8/2 148/8/2
f 149/8/2 150/8/2 153/8/2
f 153/8/2 150/8/2 154/8/2
f 151/8/2 152/8/2 155/8/2
f 155/8/2 152/8/2 156/8/2
f 154/8/2 155/8/2 157/8/2
f 157/8/2 155/8/2 158/8/2
f 159/8/2 160/8/2 161/8/2
f 161/8/2 160/8/2 162/8/2
f 163/8/2 164/8/2 165/8/2
f 165/8/2 164/8/2 166/8/2
f 167/8/2 168/8/2 169/8/2
f 169/8/2 168/8/2 170/8/2
f 171/8/2 172/8/2 173/8/2
f 173/8/2 172/8/2 174/8/2
f 175/8/2 176/8/2 177/8/2
f 177/8/2 176/8/2 178/8/2
f 179/8/2 180/8/2 181/8/2
f 181/8/2 180/8/2 182/8/2
f 183/8/2 184/8/2 185/8/2
f 185/8/2 184/8/2 186/8/2
f 187/3/2 188/3/2 189/3/2
f 189/3/2 188/3/2 190/3/2
f 191/8/2 192/8/2 193/8/2
f 193/8/2 192/8/2 194/8/2
f 195/9/2 196/9/2 198/9/2
f 198/9/2 196/9/2 199/9/2
f 197/8/2 198/8/2 201/8/2
f 201/8/2 198/8/2 202/8/2
f 199/8/2 200/8/2 205/8/2
f 205/8/2 200/8/2 206/8/2
f 203/8/2 204/8/2 207/8/2
f 207/8/2 204/8/2 208/8/2
f 209/8/2 210/8/2 211/8/2
f 211/8/2 210/8/2 212/8/2
f 213/3/2 214/3/2 215/3/2
f 215/3/2 214/3/2 216/3/2
f 217/3/2 218/3/2 219/3/2
f 219/3/2 218/3/2 220/3/2
f 221/5/2 222/5/2 224/5/2
f 224/5/2 222/5/2 225/5/2
f 223/6/2 224/6/2 226/6/2
f 224/6/2 225/6/2 226/6/2
f 226/6/2 225/6/2 227/6/2
f 228/4/2 229/4/2 230/4/2
f 230/4/2 229/4/2 231/4/2
f 232/1/2 233/1/2 234/1/2
f 234/1/2 233/1/2 235/1/2
f 240/3/3 237/3/3 236/3/3
f 241/3/3 237/3/3 240/3/3
f 244/3/3 239/3/3 238/3/3
f 245/3/3 239/3/3 244/3/3
f 246/3/3 243/3/3 242/3/3
f 247/3/3 243/3/3 246/3/3
f 250/1/3 249/1/3 248/1/3
f 251/1/3 249/1/3 250/1/3
f 252/1/3 249/1/3 251/1/3
f 253/1/3 249/1/3 252/1/3
f 254/2/3 253/2/3 252/2/3
f 255/2/3 253/2/3 254/2/3
f 256/1/3 250/1/3 248/1/3
f 257/1/3 250/1/3 256/1/3
f 258/2/3 251/2/3 250/2/3
f 259/2/3 251/2/3 258/2/3
f 260/2/3 254/2/3 252/2/3
f 261/2/3 253/2/3 255/2/3
f 262/2/3 260/2/3 252/2/3
f 262/2/3 261/2/3 260/2/3
f 262/1/3 252/1/3 251/1/3
f 263/2/3 253/2/3 261/2/3
f 263/2/3 261/2/3 262/2/3
f 263/1/3 249/1/3 253/1/3
f 264/1/3 262/1/3 251/1/3
f 264/1/3 263/1/3 262/1/3
f 265/1/3 249/1/3 263/1/3
f 265/1/3 263/1/3 264/1/3
f 266/2/3 265/2/3 264/2/3
f 267/2/3 265/2/3 266/2/3
f 268/2/3 258/2/3 250/2/3
f 269/2/3 251/2/3 259/2/3
f 271/1/3 250/1/3 257/1/3
f 272/2/3 266/2/3 264/2/3
f 273/2/3 265/2/3 267/2/3
f 274/2/3 269/2/3 268/2/3
f 274/2/3 268/2/3 250/2/3
f 274/1/3 271/1/3 270/1/3
f 274/1/3 250/1/3 271/1/3
f 275/1/3 264/1/3 251/1/3
f 275/2/3 269/2/3 274/2/3
f 275/2/3 251/2/3 269/2/3
f 276/2/3 273/2/3 272/2/3
f 276/1/3 264/1/3 275/1/3
f 276/2/3 272/2/3 264/2/3
f 277/2/3 265/2/3 273/2/3
f 277/2/3 273/2/3 276/2/3
f 277/1/3 249/1/3 265/1/3
f 278/1/3 274/1/3 270/1/3
f 278/1/3 275/1/3 274/1/3
f 278/1/3 277/1/3 276/1/3
f 278/1/3 276/1/3 275/1/3
f 279/1/3 249/1/3 277/1/3
f 279/1/3 277/1/3 278/1/3
f 282/8/3 281/8/3 280/8/3
f 283/8/3 281/8/3 282/8/3
f 286/8/3 285/8/3 284/8/3
f 287/8/3 285/8/3 286/8/3
f 292/6/3 291/6/3 290/6/3
f 294/6/3 292/6/3 290/6/3
f 294/6/3 293/6/3 292/6/3
f 295/6/3 293/6/3 294/6/3
f 296/4/3 289/4/3 288/4/3
f 297/4/3 289/4/3 296/4/3
f 300/8/3 299/8/3 298/8/3
f 301/8/3 299/8/3 300/8/3
f 304/8/3 302/8/3 301/8/3
f 305/8/3 302/8/3 304/8/3
f 306/8/3 304/8/3 303/8/3
f 307/8/3 304/8/3 306/8/3
f 311/8/3 309/8/3 308/8/3
f 312/8/3 309/8/3 311/8/3
f 313/9/3 311/9/3 310/9/3
f 314/9/3 311/9/3 313/9/3
f 316/8/3 315/8/3 314/8/3
f 317/8/3 315/8/3 316/8/3
f 321/8/3 319/8/3 318/8/3
f 322/8/3 319/8/3 321/8/3
f 323/8/3 319/8/3 322/8/3
f 324/8/3 319/8/3 323/8/3
f 327/8/3 321/8/3 320/8/3
f 327/8/3 322/8/3 321/8/3
f 328/8/3 322/8/3 327/8/3
f 329/8/3 322/8/3 328/8/3
f 330/8/3 324/8/3 323/8/3
f 330/8/3 325/8/3 324/8/3
f 331/8/3 325/8/3 330/8/3
f 332/8/3 325/8/3 331/8/3
f 334/8/3 328/8/3 327/8/3
f 334/8/3 327/8/3 326/8/3
f 335/8/3 328/8/3 334/8/3
f 336/8/3 333/8/3 332/8/3
f 336/8/3 332/8/3 331/8/3
f 337/8/3 333/8/3 336/8/3
f 338/8/3 333/8/3 337/8/3
f 340/8/3 339/8/3 338/8/3
f 340/8/3 338/8/3 337/8/3
f 341/8/3 339/8/3 340/8/3
f 342/8/3 339/8/3 341/8/3
f 344/8/3 343/8/3 342/8/3
f 344/8/3 342/8/3 341/8/3
f 345/8/3 343/8/3 344/8/3
f 346/8/3 343/8/3 345/8/3
f 348/8/3 347/8/3 346/8/3
f 348/8/3 346/8/3 345/8/3
f 349/8/3 347/8/3 348/8/3
f 353/8/3 347/8/3 349/8/3
f 354/8/3 351/8/3 350/8/3
f 355/8/3 353/8/3 352/8/3
f 356/8/3 347/8/3 353/8/3
f 356/8/3 353/8/3 355/8/3
f 357/8/3 347/8/3 356/8/3
f 358/8/3 354/8/3 350/8/3
f 358/8/3 355/8/3 354/8/3
f 358/8/3 356/8/3 355/8/3
f 359/8/3 356/8/3 358/8/3
f 360/8/3 358/8/3 350/8/3
f 361/8/3 358/8/3 360/8/3
f 365/5/3 363/5/3 362/5/3
f 366/5/3 365/5/3 364/5/3
f 367/5/3 363/5/3 365/5/3
f 367/5/3 365/5/3 366/5/3
f 370/8/3 369/8/3 368/8/3
f 372/8/3 370/8/3 368/8/3
f 372/8/3 371/8/3 370/8/3
f 373/8/3 371/8/3 372/8/3
f 374/8/4 375/8/4 376/8/4
f 374/8/4 376/8/4 378/8/4
f 376/8/4 377/8/4 378/8/4
f 378/8/4 377/8/4 379/8/4
f 380/8/4 381/8/4 383/8/4
f 383/8/4 381/8/4 384/8/4
f 384/8/4 381/8/4 385/8/4
f 385/8/4 381/8/4 386/8/4
f 382/8/4 383/8/4 389/8/4
f 383/8/4 384/8/4 389/8/4
f 389/8/4 384/8/4 390/8/4
f 390/8/4 384/8/4 391/8/4
f 385/8/4 386/8/4 392/8/4
f 386/8/4 387/8/4 392/8/4
f 392/8/4 387/8/4 393/8/4
f 393/8/4 387/8/4 394/8/4
f 389/8/4 390/8/4 396/8/4
f 388/8/4 389/8/4 396/8/4
f 396/8/4 390/8/4 397/8/4
f 394/8/4 395/8/4 398/8/4
f 393/8/4 394/8/4 398/8/4
f 398/8/4 395/8/4 399/8/4
f 399/8/4 395/8/4 400/8/4
f 400/8/4 401/8/4 402/8/4
f 399/8/4 400/8/4 402/8/4
f 402/8/4 401/8/4 403/8/4
f 403/8/4 401/8/4 404/8/4
f 404/8/4 405/8/4 406/8/4
f 403/8/4 404/8/4 406/8/4
f 406/8/4 405/8/4 407/8/4
f 407/8/4 405/8/4 408/8/4
f 408/8/4 409/8/4 410/8/4
f 407/8/4 408/8/4 410/8/4
f 410/8/4 409/8/4 411/8/4
f 411/8/4 409/8/4 415/8/4
f 412/8/4 413/8/4 416/8/4
f 414/8/4 415/8/4 417/8/4
f 415/8/4 409/8/4 418/8/4
f 417/8/4 415/8/4 418/8/4
f 418/8/4 409/8/4 419/8/4
f 412/8/4 416/8/4 420/8/4
f 416/8/4 417/8/4 420/8/4
f 417/8/4 418/8/4 420/8/4
f 420/8/4 418/8/4 421/8/4
f 412/8/4 420/8/4 422/8/4
f 422/8/4 420/8/4 423/8/4
f 424/6/4 425/6/4 427/6/4
f 427/6/4 425/6/4 428/6/4
f 426/5/4 427/5/4 431/5/4
f 430/5/4 431/5/4 432/5/4
f 428/6/4 429/6/4 433/6/4
f 432/5/4 431/5/4 433/5/4
f 427/6/4 428/6/4 433/6/4
f 431/5/4 427/5/4 433/5/4
f 433/6/4 429/6/4 434/6/4
f 435/8/4 436/8/4 437/8/4
f 437/8/4 436/8/4 438/8/4
f 438/8/4 439/8/4 441/8/4
f 441/8/4 439/8/4 442/8/4
f 440/8/4 441/8/4 443/8/4
f 443/8/4 441/8/4 444/8/4
f 445/8/4 446/8/4 448/8/4
f 448/8/4 446/8/4 449/8/4
f 447/9/4 448/9/4 450/9/4
f 450/9/4 448/9/4 451/9/4
f 451/8/4 452/8/4 453/8/4
f 453/8/4 452/8/4 454/8/4
f 455/4/4 456/4/4 457/4/4
f 457/4/4 456/4/4 458/4/4
f 459/8/4 460/8/4 461/8/4
f 461/8/4 460/8/4 462/8/4
f 463/8/4 464/8/4 465/8/4
f 465/8/4 464/8/4 466/8/4
f 467/1/4 468/1/4 469/1/4
f 469/1/4 468/1/4 470/1/4
f 470/1/4 468/1/4 472/1/4
f 471/1/4 472/1/4 473/1/4
f 472/1/4 468/1/4 474/1/4
f 473/1/4 472/1/4 474/1/4
f 479/1/5 476/1/5 475/1/5
f 480/1/5 476/1/5 479/1/5
f 481/1/5 478/1/5 477/1/5
f 482/1/5 478/1/5 481/1/5
f 485/1/5 484/1/5 483/1/5
f 486/1/5 484/1/5 485/1/5
f 489/3/5 488/3/5 487/3/5
f 490/3/5 488/3/5 489/3/5
f 495/3/5 492/3/5 491/3/5
f 496/3/5 492/3/5 495/3/5
f 497/3/5 494/3/5 493/3/5
f 498/3/5 494/3/5 497/3/5
f 501/8/5 500/8/5 499/8/5
f 502/8/5 500/8/5 501/8/5
f 505/8/5 504/8/5 503/8/5
f 506/8/5 504/8/5 505/8/5
f 509/5/5 508/5/5 507/5/5
f 510/5/5 508/5/5 509/5/5
f 513/6/5 512/6/5 511/6/5
f 514/6/5 512/6/5 513/6/5
f 515/6/5 513/6/5 511/6/5
f 516/6/5 513/6/5 515/6/5
f 521/8/5 520/8/5 519/8/5
f 522/8/5 520/8/5 521/8/5
f 523/9/5 518/9/5 517/9/5
f 524/9/5 518/9/5 523/9/5
f 528/8/5 526/8/5 525/8/5
f 529/8/5 526/8/5 528/8/5
f 533/8/5 532/8/5 531/8/5
f 534/8/5 532/8/5 533/8/5
f 535/8/5 528/8/5 527/8/5
f 536/8/5 528/8/5 535/8/5
f 537/8/5 530/8/5 529/8/5
f 538/8/5 530/8/5 537/8/5
f 539/8/5 537/8/5 536/8/5
f 540/8/5 537/8/5 539/8/5
f 543/8/5 542/8/5 541/8/5
f 544/8/5 542/8/5 543/8/5
f 549/8/5 546/8/5 545/8/5
f 550/8/5 546/8/5 549/8/5
f 551/8/5 548/8/5 547/8/5
f 552/8/5 548/8/5 551/8/5
f 555/8/5 554/8/5 553/8/5
f 556/8/5 554/8/5 555/8/5
f 561/8/5 558/8/5 557/8/5
f 562/8/5 558/8/5 561/8/5
f 563/8/5 560/8/5 559/8/5
f 564/8/5 560/8/5 563/8/5
f 567/8/5 566/8/5 565/8/5
f 568/8/5 566/8/5 567/8/5
f 569/3/6 570/3/6 571/3/6
f 571/3/6 570/3/6 572/3/6
f 573/3/6 574/3/6 577/3/6
f 577/3/6 574/3/6 578/3/6
f 575/3/6 576/3/6 579/3/6
f 579/3/6 576/3/6 580/3/6
f 581/1/6 582/1/6 583/1/6
f 583/1/6 582/1/6 584/1/6
f 584/1/6 582/1/6 585/1/6
f 585/1/6 582/1/6 586/1/6
f 581/1/6 583/1/6 587/1/6
f 587/1/6 583/1/6 588/1/6
f 584/1/6 585/1/6 589/1/6
f 589/1/6 585/1/6 590/1/6
f 581/1/6 587/1/6 591/1/6
f 590/1/6 585/1/6 594/1/6
f 594/1/6 585/1/6 595/1/6
f 586/1/6 582/1/6 596/1/6
f 591/1/6 592/1/6 597/1/6
f 594/1/6 595/1/6 598/1/6
f 595/1/6 596/1/6 598/1/6
f 593/1/6 594/1/6 598/1/6
f 591/1/6 597/1/6 599/1/6
f 597/1/6 598/1/6 599/1/6
f 581/1/6 591/1/6 599/1/6
f 598/1/6 596/1/6 600/1/6
f 599/1/6 598/1/6 600/1/6
f 596/1/6 582/1/6 600/1/6
f 601/8/6 602/8/6 604/8/6
f 604/8/6 602/8/6 605/8/6
f 603/8/6 604/8/6 607/8/6
f 607/8/6 604/8/6 608/8/6
f 605/8/6 606/8/6 609/8/6
f 609/8/6 606/8/6 610/8/6
f 608/8/6 609/8/6 611/8/6
f 611/8/6 609/8/6 612/8/6
f 613/8/6 614/8/6 615/8/6
f 615/8/6 614/8/6 616/8/6
f 613/8/6 615/8/6 617/8/6
f 616/8/6 614/8/6 618/8/6
f 613/8/6 617/8/6 619/8/6
f 617/8/6 618/8/6 619/8/6
f 618/8/6 614/8/6 620/8/6
f 619/8/6 618/8/6 620/8/6
f 621/4/6 622/4/6 623/4/6
f 623/4/6 622/4/6 624/4/6
f 623/2/6 624/2/6 625/2/6
f 624/4/6 622/4/6 626/4/6
f 625/2/6 624/2/6 626/2/6
f 621/4/6 623/4/6 627/4/6
f 623/2/6 625/2/6 627/2/6
f 627/2/6 625/2/6 628/2/6
f 626/4/6 622/4/6 629/4/6
f 627/4/6 628/4/6 630/4/6
f 628/4/6 629/4/6 630/4/6
f 621/4/6 627/4/6 630/4/6
f 629/4/6 622/4/6 631/4/6
f 630/4/6 629/4/6 631/4/6
f 632/8/6 633/8/6 634/8/6
f 634/8/6 633/8/6 635/8/6
f 636/8/6 637/8/6 638/8/6
f 638/8/6 637/8/6 639/8/6
f 640/6/6 641/6/6 642/6/6
f 642/6/6 641/6/6 643/6/6
f 642/7/6 643/7/6 648/7/6
f 648/7/6 643/7/6 649/7/6
f 644/8/6 645/8/6 650/8/6
f 650/8/6 645/8/6 651/8/6
f 646/9/6 647/9/6 652/9/6
f 652/9/6 647/9/6 653/9/6
f 648/6/6 649/6/6 654/6/6
f 654/6/6 649/6/6 655/6/6
f 656/6/6 657/6/6 658/6/6
f 658/6/6 657/6/6 659/6/6
f 658/7/6 659/7/6 662/7/6
f 659/6/6 657/6/6 663/6/6
f 662/7/6 659/7/6 663/7/6
f 660/8/6 661/8/6 664/8/6
f 664/8/6 661/8/6 665/8/6
f 662/6/6 663/6/6 666/6/6
f 663/6/6 657/6/6 667/6/6
f 666/6/6 663/6/6 667/6/6
f 668/8/6 669/8/6 671/8/6
f 671/8/6 669/8/6 672/8/6
f 670/8/6 671/8/6 674/8/6
f 672/8/6 673/8/6 674/8/6
f 671/8/6 672/8/6 674/8/6
f 674/8/6 673/8/6 675/8/6
f 670/8/6 674/8/6 676/8/6
f 675/8/6 673/8/6 677/8/6
f 670/8/6 676/8/6 678/8/6
f 676/8/6 677/8/6 678/8/6
f 678/8/6 677/8/6 679/8/6
f 677/8/6 673/8/6 680/8/6
f 679/8/6 677/8/6 680/8/6
f 680/8/6 673/8/6 681/8/6
f 679/8/6 680/8/6 682/8/6
f 682/8/6 680/8/6 683/8/6
f 684/8/6 685/8/6 690/8/6
f 690/8/6 685/8/6 691/8/6
f 686/8/6 687/8/6 692/8/6
f 692/8/6 687/8/6 693/8/6
f 688/8/6 689/8/6 694/8/6
f 694/8/6 689/8/6 695/8/6
f 696/8/6 697/8/6 698/8/6
f 698/8/6 697/8/6 699/8/6
f 700/8/6 701/8/6 704/8/6
f 704/8/6 701/8/6 705/8/6
f 702/8/6 703/8/6 706/8/6
f 706/8/6 703/8/6 707/8/6
f 708/8/6 709/8/6 710/8/6
f 710/8/6 709/8/6 711/8/6
