# MagicaVoxel @ Ephtracy

# group
o 

# material
mtllib deskBook.mtl
usemtl palette

# normals
vn -1 0 0
vn 1 0 0
vn 0 0 1
vn 0 0 -1
vn 0 -1 0
vn 0 1 0

# texcoords
vt 0.0332031 0.5
vt 0.0371094 0.5
vt 0.0410156 0.5
vt 0.0683594 0.5
vt 0.0957031 0.5
vt 0.0996094 0.5
vt 0.220703 0.5
vt 0.224609 0.5

# verts
v -1.7 0 -1.1
v -1.7 0 -2
v -1.7 1.8 -1.1
v -1.7 1.8 -2
v -1.4 1.8 -1.4
v -1.4 1.8 -1.7
v -1.4 1.9 -1.4
v -1.4 1.9 -1.7
v -1.4 2.4 -1.5
v -1.4 2.4 -1.6
v -1.4 2.8 -1.5
v -1.4 2.8 -1.6
v -1.3 1.4 -1
v -1.3 1.4 -1.1
v -1.3 1.5 -1
v -1.3 1.5 -1.1
v -1.3 1.8 -1.3
v -1.3 1.8 -1.4
v -1.3 1.8 -1.7
v -1.3 1.8 -1.8
v -1.3 1.9 -1.3
v -1.3 1.9 -1.4
v -1.3 1.9 -1.7
v -1.3 1.9 -1.8
v -1.3 2 -1.4
v -1.3 2 -1.7
v -1.3 2.3 -1.5
v -1.3 2.3 -1.6
v -1.3 2.4 -1.5
v -1.3 2.4 -1.6
v -1.3 2.8 -1.5
v -1.3 2.8 -1.6
v -1.3 2.9 -1.5
v -1.3 2.9 -1.6
v -1.2 2 -1.5
v -1.2 2 -1.6
v -1.2 2.3 -1.5
v -1.2 2.3 -1.6
v -1.2 2.9 -1.5
v -1.2 2.9 -1.6
v -1.2 3.1 -1.5
v -1.2 3.1 -1.6
v -1.1 3.1 -1.5
v -1.1 3.1 -1.6
v -1.1 3.2 -1.5
v -1.1 3.2 -1.6
v -1 3.2 -1.5
v -1 3.2 -1.6
v -1 3.3 -1.5
v -1 3.3 -1.6
v -0.9 3.3 -1.5
v -0.9 3.3 -1.6
v -0.9 3.4 -1.5
v -0.9 3.4 -1.6
v -0.7 2.8 -1.4
v -0.7 2.8 -1.7
v -0.7 3 -1.4
v -0.7 3 -1.7
v -0.6 0.7 -1
v -0.6 0.7 -1.1
v -0.6 0.8 -1
v -0.6 0.8 -1.1
v -0.6 2.7 -1.4
v -0.6 2.7 -1.7
v -0.6 2.8 -1.3
v -0.6 2.8 -1.4
v -0.6 2.8 -1.7
v -0.6 2.8 -1.8
v -0.6 3 -1.3
v -0.6 3 -1.4
v -0.6 3 -1.5
v -0.6 3 -1.6
v -0.6 3 -1.7
v -0.6 3 -1.8
v -0.6 3.1 -1.5
v -0.6 3.1 -1.6
v -0.6 3.2 -1.5
v -0.6 3.2 -1.6
v -0.6 3.3 -1.5
v -0.6 3.3 -1.6
v -0.5 3.1 -1.5
v -0.5 3.1 -1.6
v -0.5 3.2 -1.5
v -0.5 3.2 -1.6
v -0.4 1.8 -1.1
v -0.4 1.8 -1.9
v -0.4 1.9 -1.1
v -0.4 1.9 -1.9
v -0.4 2.8 -1.5
v -0.4 2.8 -1.6
v -0.4 3 -1.5
v -0.4 3 -1.6
v -0.3 1.9 -1.1
v -0.3 1.9 -1.9
v -0.3 2 -1.1
v -0.3 2 -1.9
v 0.3 1.4 -1
v 0.3 1.4 -1.1
v 0.3 1.5 -1
v 0.3 1.5 -1.1
v 1 0 -1.1
v 1 0 -2
v 1 0.2 -1.1
v 1 0.2 -2
v -1.3 2.5 -1.5
v -1.3 2.5 -1.6
v -1.3 2.7 -1.5
v -1.3 2.7 -1.6
v -1.2 2.4 -1.5
v -1.2 2.4 -1.6
v -1.2 2.5 -1.5
v -1.2 2.5 -1.6
v -1.2 2.7 -1.5
v -1.2 2.7 -1.6
v -1.2 2.8 -1.5
v -1.2 2.8 -1.6
v -1.1 0 -1.1
v -1.1 0 -2
v -1.1 0.2 -1.1
v -1.1 0.2 -2
v -1.1 2 -1.5
v -1.1 2 -1.6
v -1.1 2.4 -1.5
v -1.1 2.4 -1.6
v -1.1 2.8 -1.5
v -1.1 2.8 -1.6
v -1.1 3 -1.5
v -1.1 3 -1.6
v -1 1.8 -1.3
v -1 1.8 -1.4
v -1 1.8 -1.7
v -1 1.8 -1.8
v -1 1.9 -1.3
v -1 1.9 -1.4
v -1 1.9 -1.7
v -1 1.9 -1.8
v -1 2 -1.4
v -1 2 -1.7
v -1 3 -1.5
v -1 3 -1.6
v -1 3.1 -1.5
v -1 3.1 -1.6
v -0.9 1.8 -1.4
v -0.9 1.8 -1.7
v -0.9 1.9 -1.4
v -0.9 1.9 -1.7
v -0.9 3.1 -1.5
v -0.9 3.1 -1.6
v -0.9 3.2 -1.5
v -0.9 3.2 -1.6
v -0.8 3.2 -1.5
v -0.8 3.2 -1.6
v -0.8 3.3 -1.5
v -0.8 3.3 -1.6
v -0.6 2.8 -1.5
v -0.6 2.8 -1.6
v -0.6 2.9 -1.5
v -0.6 2.9 -1.6
v -0.5 2.9 -1.5
v -0.5 2.9 -1.6
v -0.5 3 -1.5
v -0.5 3 -1.6
v -0.5 3.3 -1.5
v -0.5 3.3 -1.6
v -0.5 3.4 -1.5
v -0.5 3.4 -1.6
v -0.4 1.4 -1
v -0.4 1.4 -1.1
v -0.4 1.5 -1
v -0.4 1.5 -1.1
v -0.4 3.1 -1.5
v -0.4 3.1 -1.6
v -0.4 3.3 -1.5
v -0.4 3.3 -1.6
v -0.3 2.7 -1.4
v -0.3 2.7 -1.7
v -0.3 2.8 -1.3
v -0.3 2.8 -1.4
v -0.3 2.8 -1.7
v -0.3 2.8 -1.8
v -0.3 3 -1.3
v -0.3 3 -1.4
v -0.3 3 -1.5
v -0.3 3 -1.6
v -0.3 3 -1.7
v -0.3 3 -1.8
v -0.3 3.1 -1.5
v -0.3 3.1 -1.6
v -0.2 2.8 -1.4
v -0.2 2.8 -1.7
v -0.2 3 -1.4
v -0.2 3 -1.7
v 0.5 0.7 -1
v 0.5 0.7 -1.1
v 0.5 0.8 -1
v 0.5 0.8 -1.1
v 1.2 1.4 -1
v 1.2 1.4 -1.1
v 1.2 1.5 -1
v 1.2 1.5 -1.1
v 1.2 1.9 -1.1
v 1.2 1.9 -1.9
v 1.2 2 -1.1
v 1.2 2 -1.9
v 1.3 1.8 -1.1
v 1.3 1.8 -1.9
v 1.3 1.9 -1.1
v 1.3 1.9 -1.9
v 1.6 0 -1.1
v 1.6 0 -2
v 1.6 1.8 -1.1
v 1.6 1.8 -2
v -1.3 1.4 -1
v -1.3 1.5 -1
v -0.6 0.7 -1
v -0.6 0.8 -1
v -0.4 1.4 -1
v -0.4 1.5 -1
v 0.3 1.4 -1
v 0.3 1.5 -1
v 0.5 0.7 -1
v 0.5 0.8 -1
v 1.2 1.4 -1
v 1.2 1.5 -1
v -1.7 0 -1.1
v -1.7 1.8 -1.1
v -1.6 0.4 -1.1
v -1.6 1 -1.1
v -1.6 1.1 -1.1
v -1.6 1.7 -1.1
v -1.3 1.4 -1.1
v -1.3 1.5 -1.1
v -1.1 0 -1.1
v -1.1 0.2 -1.1
v -0.6 0.7 -1.1
v -0.6 0.8 -1.1
v -0.4 1.4 -1.1
v -0.4 1.5 -1.1
v -0.4 1.8 -1.1
v -0.4 1.9 -1.1
v -0.3 1.9 -1.1
v -0.3 2 -1.1
v -0.1 1.1 -1.1
v -0.1 1.7 -1.1
v 0 1.1 -1.1
v 0 1.7 -1.1
v 0.3 1.4 -1.1
v 0.3 1.5 -1.1
v 0.4 1.9 -1.1
v 0.4 2 -1.1
v 0.5 0.7 -1.1
v 0.5 0.8 -1.1
v 0.5 1.9 -1.1
v 0.5 2 -1.1
v 1 0 -1.1
v 1 0.2 -1.1
v 1.2 1.4 -1.1
v 1.2 1.5 -1.1
v 1.2 1.9 -1.1
v 1.2 2 -1.1
v 1.3 1.8 -1.1
v 1.3 1.9 -1.1
v 1.5 0.4 -1.1
v 1.5 1 -1.1
v 1.5 1.1 -1.1
v 1.5 1.7 -1.1
v 1.6 0 -1.1
v 1.6 1.8 -1.1
v -1.3 1.8 -1.3
v -1.3 1.9 -1.3
v -1 1.8 -1.3
v -1 1.9 -1.3
v -0.6 2.8 -1.3
v -0.6 3 -1.3
v -0.3 2.8 -1.3
v -0.3 3 -1.3
v -1.4 1.8 -1.4
v -1.4 1.9 -1.4
v -1.3 1.8 -1.4
v -1.3 1.9 -1.4
v -1.3 2 -1.4
v -1 1.8 -1.4
v -1 1.9 -1.4
v -1 2 -1.4
v -0.9 1.8 -1.4
v -0.9 1.9 -1.4
v -0.7 2.8 -1.4
v -0.7 3 -1.4
v -0.6 2.7 -1.4
v -0.6 2.8 -1.4
v -0.6 3 -1.4
v -0.3 2.7 -1.4
v -0.3 2.8 -1.4
v -0.3 3 -1.4
v -0.2 2.8 -1.4
v -0.2 3 -1.4
v -1.4 2.4 -1.5
v -1.4 2.8 -1.5
v -1.3 2.3 -1.5
v -1.3 2.4 -1.5
v -1.3 2.5 -1.5
v -1.3 2.7 -1.5
v -1.3 2.8 -1.5
v -1.3 2.9 -1.5
v -1.2 2 -1.5
v -1.2 2.3 -1.5
v -1.2 2.4 -1.5
v -1.2 2.5 -1.5
v -1.2 2.7 -1.5
v -1.2 2.8 -1.5
v -1.2 2.9 -1.5
v -1.2 3.1 -1.5
v -1.1 2 -1.5
v -1.1 2.4 -1.5
v -1.1 2.8 -1.5
v -1.1 3 -1.5
v -1.1 3.1 -1.5
v -1.1 3.2 -1.5
v -1 3 -1.5
v -1 3.1 -1.5
v -1 3.2 -1.5
v -1 3.3 -1.5
v -0.9 3.1 -1.5
v -0.9 3.2 -1.5
v -0.9 3.3 -1.5
v -0.9 3.4 -1.5
v -0.8 3.2 -1.5
v -0.8 3.3 -1.5
v -0.6 3 -1.5
v -0.6 3.1 -1.5
v -0.6 3.2 -1.5
v -0.6 3.3 -1.5
v -0.5 3.1 -1.5
v -0.5 3.2 -1.5
v -0.5 3.3 -1.5
v -0.5 3.4 -1.5
v -0.4 3.1 -1.5
v -0.4 3.3 -1.5
v -0.3 3 -1.5
v -0.3 3.1 -1.5
v -0.6 2.8 -1.6
v -0.6 2.9 -1.6
v -0.5 2.9 -1.6
v -0.5 3 -1.6
v -0.4 2.8 -1.6
v -0.4 3 -1.6
v -0.6 2.8 -1.5
v -0.6 2.9 -1.5
v -0.5 2.9 -1.5
v -0.5 3 -1.5
v -0.4 2.8 -1.5
v -0.4 3 -1.5
v -1.4 2.4 -1.6
v -1.4 2.8 -1.6
v -1.3 2.3 -1.6
v -1.3 2.4 -1.6
v -1.3 2.5 -1.6
v -1.3 2.7 -1.6
v -1.3 2.8 -1.6
v -1.3 2.9 -1.6
v -1.2 2 -1.6
v -1.2 2.3 -1.6
v -1.2 2.4 -1.6
v -1.2 2.5 -1.6
v -1.2 2.7 -1.6
v -1.2 2.8 -1.6
v -1.2 2.9 -1.6
v -1.2 3.1 -1.6
v -1.1 2 -1.6
v -1.1 2.4 -1.6
v -1.1 2.8 -1.6
v -1.1 3 -1.6
v -1.1 3.1 -1.6
v -1.1 3.2 -1.6
v -1 3 -1.6
v -1 3.1 -1.6
v -1 3.2 -1.6
v -1 3.3 -1.6
v -0.9 3.1 -1.6
v -0.9 3.2 -1.6
v -0.9 3.3 -1.6
v -0.9 3.4 -1.6
v -0.8 3.2 -1.6
v -0.8 3.3 -1.6
v -0.6 3 -1.6
v -0.6 3.1 -1.6
v -0.6 3.2 -1.6
v -0.6 3.3 -1.6
v -0.5 3.1 -1.6
v -0.5 3.2 -1.6
v -0.5 3.3 -1.6
v -0.5 3.4 -1.6
v -0.4 3.1 -1.6
v -0.4 3.3 -1.6
v -0.3 3 -1.6
v -0.3 3.1 -1.6
v -1.4 1.8 -1.7
v -1.4 1.9 -1.7
v -1.3 1.8 -1.7
v -1.3 1.9 -1.7
v -1.3 2 -1.7
v -1 1.8 -1.7
v -1 1.9 -1.7
v -1 2 -1.7
v -0.9 1.8 -1.7
v -0.9 1.9 -1.7
v -0.7 2.8 -1.7
v -0.7 3 -1.7
v -0.6 2.7 -1.7
v -0.6 2.8 -1.7
v -0.6 3 -1.7
v -0.3 2.7 -1.7
v -0.3 2.8 -1.7
v -0.3 3 -1.7
v -0.2 2.8 -1.7
v -0.2 3 -1.7
v -1.3 1.8 -1.8
v -1.3 1.9 -1.8
v -1 1.8 -1.8
v -1 1.9 -1.8
v -0.6 2.8 -1.8
v -0.6 3 -1.8
v -0.3 2.8 -1.8
v -0.3 3 -1.8
v -0.4 1.8 -1.9
v -0.4 1.9 -1.9
v -0.3 1.9 -1.9
v -0.3 2 -1.9
v 0.4 1.9 -1.9
v 0.4 2 -1.9
v 0.5 1.9 -1.9
v 0.5 2 -1.9
v 1.2 1.9 -1.9
v 1.2 2 -1.9
v 1.3 1.8 -1.9
v 1.3 1.9 -1.9
v -1.7 0 -2
v -1.7 1.8 -2
v -1.1 0 -2
v -1.1 0.2 -2
v 1 0 -2
v 1 0.2 -2
v 1.6 0 -2
v 1.6 1.8 -2
v -1.7 0 -1.1
v -1.1 0 -1.1
v 1 0 -1.1
v 1.6 0 -1.1
v -1.7 0 -2
v -1.1 0 -2
v 1 0 -2
v 1.6 0 -2
v -1.1 0.2 -1.1
v 1 0.2 -1.1
v -1.1 0.2 -2
v 1 0.2 -2
v -0.6 0.7 -1
v 0.5 0.7 -1
v -0.6 0.7 -1.1
v 0.5 0.7 -1.1
v -1.3 1.4 -1
v -0.4 1.4 -1
v 0.3 1.4 -1
v 1.2 1.4 -1
v -1.3 1.4 -1.1
v -0.4 1.4 -1.1
v 0.3 1.4 -1.1
v 1.2 1.4 -1.1
v -1.3 2.3 -1.5
v -1.2 2.3 -1.5
v -1.3 2.3 -1.6
v -1.2 2.3 -1.6
v -1.4 2.4 -1.5
v -1.3 2.4 -1.5
v -1.4 2.4 -1.6
v -1.3 2.4 -1.6
v -0.6 2.7 -1.4
v -0.3 2.7 -1.4
v -1.3 2.7 -1.5
v -1.2 2.7 -1.5
v -1.3 2.7 -1.6
v -1.2 2.7 -1.6
v -0.6 2.7 -1.7
v -0.3 2.7 -1.7
v -0.6 2.8 -1.3
v -0.3 2.8 -1.3
v -0.7 2.8 -1.4
v -0.6 2.8 -1.4
v -0.3 2.8 -1.4
v -0.2 2.8 -1.4
v -1.2 2.8 -1.5
v -1.1 2.8 -1.5
v -1.2 2.8 -1.6
v -1.1 2.8 -1.6
v -0.7 2.8 -1.7
v -0.6 2.8 -1.7
v -0.3 2.8 -1.7
v -0.2 2.8 -1.7
v -0.6 2.8 -1.8
v -0.3 2.8 -1.8
v -0.6 2.9 -1.5
v -0.5 2.9 -1.5
v -0.6 2.9 -1.6
v -0.5 2.9 -1.6
v -1.1 3 -1.5
v -1 3 -1.5
v -0.5 3 -1.5
v -0.4 3 -1.5
v -1.1 3 -1.6
v -1 3 -1.6
v -0.5 3 -1.6
v -0.4 3 -1.6
v -1 3.1 -1.5
v -0.9 3.1 -1.5
v -1 3.1 -1.6
v -0.9 3.1 -1.6
v -0.9 3.2 -1.5
v -0.8 3.2 -1.5
v -0.6 3.2 -1.5
v -0.5 3.2 -1.5
v -0.9 3.2 -1.6
v -0.8 3.2 -1.6
v -0.6 3.2 -1.6
v -0.5 3.2 -1.6
v -0.8 3.3 -1.5
v -0.6 3.3 -1.5
v -0.8 3.3 -1.6
v -0.6 3.3 -1.6
v -0.6 0.8 -1
v 0.5 0.8 -1
v -0.6 0.8 -1.1
v 0.5 0.8 -1.1
v -1.3 1.5 -1
v -0.4 1.5 -1
v 0.3 1.5 -1
v 1.2 1.5 -1
v -1.3 1.5 -1.1
v -0.4 1.5 -1.1
v 0.3 1.5 -1.1
v 1.2 1.5 -1.1
v -1.7 1.8 -1.1
v -0.4 1.8 -1.1
v 1.3 1.8 -1.1
v 1.6 1.8 -1.1
v -1.3 1.8 -1.3
v -1 1.8 -1.3
v -1.4 1.8 -1.4
v -1.3 1.8 -1.4
v -1 1.8 -1.4
v -0.9 1.8 -1.4
v -1.4 1.8 -1.7
v -1.3 1.8 -1.7
v -1 1.8 -1.7
v -0.9 1.8 -1.7
v -1.3 1.8 -1.8
v -1 1.8 -1.8
v -0.4 1.8 -1.9
v 1.3 1.8 -1.9
v -1.7 1.8 -2
v 1.6 1.8 -2
v -0.4 1.9 -1.1
v -0.3 1.9 -1.1
v 1.2 1.9 -1.1
v 1.3 1.9 -1.1
v -1.3 1.9 -1.3
v -1 1.9 -1.3
v -1.4 1.9 -1.4
v -1.3 1.9 -1.4
v -1 1.9 -1.4
v -0.9 1.9 -1.4
v -1.4 1.9 -1.7
v -1.3 1.9 -1.7
v -1 1.9 -1.7
v -0.9 1.9 -1.7
v -1.3 1.9 -1.8
v -1 1.9 -1.8
v -0.4 1.9 -1.9
v -0.3 1.9 -1.9
v 1.2 1.9 -1.9
v 1.3 1.9 -1.9
v -0.3 2 -1.1
v 0.4 2 -1.1
v 0.5 2 -1.1
v 1.2 2 -1.1
v -1.3 2 -1.4
v -1 2 -1.4
v -1.2 2 -1.5
v -1.1 2 -1.5
v -1.2 2 -1.6
v -1.1 2 -1.6
v -1.3 2 -1.7
v -1 2 -1.7
v -0.3 2 -1.9
v 0.4 2 -1.9
v 0.5 2 -1.9
v 1.2 2 -1.9
v -1.2 2.4 -1.5
v -1.1 2.4 -1.5
v -1.2 2.4 -1.6
v -1.1 2.4 -1.6
v -1.3 2.5 -1.5
v -1.2 2.5 -1.5
v -1.3 2.5 -1.6
v -1.2 2.5 -1.6
v -1.4 2.8 -1.5
v -1.3 2.8 -1.5
v -0.6 2.8 -1.5
v -0.4 2.8 -1.5
v -1.4 2.8 -1.6
v -1.3 2.8 -1.6
v -0.6 2.8 -1.6
v -0.4 2.8 -1.6
v -1.3 2.9 -1.5
v -1.2 2.9 -1.5
v -1.3 2.9 -1.6
v -1.2 2.9 -1.6
v -0.6 3 -1.3
v -0.3 3 -1.3
v -0.7 3 -1.4
v -0.6 3 -1.4
v -0.3 3 -1.4
v -0.2 3 -1.4
v -0.6 3 -1.5
v -0.3 3 -1.5
v -0.6 3 -1.6
v -0.3 3 -1.6
v -0.7 3 -1.7
v -0.6 3 -1.7
v -0.3 3 -1.7
v -0.2 3 -1.7
v -0.6 3 -1.8
v -0.3 3 -1.8
v -1.2 3.1 -1.5
v -1.1 3.1 -1.5
v -0.6 3.1 -1.5
v -0.5 3.1 -1.5
v -0.4 3.1 -1.5
v -0.3 3.1 -1.5
v -1.2 3.1 -1.6
v -1.1 3.1 -1.6
v -0.6 3.1 -1.6
v -0.5 3.1 -1.6
v -0.4 3.1 -1.6
v -0.3 3.1 -1.6
v -1.1 3.2 -1.5
v -1 3.2 -1.5
v -1.1 3.2 -1.6
v -1 3.2 -1.6
v -1 3.3 -1.5
v -0.9 3.3 -1.5
v -0.5 3.3 -1.5
v -0.4 3.3 -1.5
v -1 3.3 -1.6
v -0.9 3.3 -1.6
v -0.5 3.3 -1.6
v -0.4 3.3 -1.6
v -0.9 3.4 -1.5
v -0.5 3.4 -1.5
v -0.9 3.4 -1.6
v -0.5 3.4 -1.6

# faces
f 3/1/1 2/1/1 1/1/1
f 4/1/1 2/1/1 3/1/1
f 7/5/1 6/5/1 5/5/1
f 8/5/1 6/5/1 7/5/1
f 11/5/1 10/5/1 9/5/1
f 12/5/1 10/5/1 11/5/1
f 15/3/1 14/3/1 13/3/1
f 16/3/1 14/3/1 15/3/1
f 21/5/1 18/5/1 17/5/1
f 22/5/1 18/5/1 21/5/1
f 23/5/1 20/5/1 19/5/1
f 24/5/1 20/5/1 23/5/1
f 25/5/1 23/5/1 22/5/1
f 26/5/1 23/5/1 25/5/1
f 29/5/1 28/5/1 27/5/1
f 30/5/1 28/5/1 29/5/1
f 33/5/1 32/5/1 31/5/1
f 34/5/1 32/5/1 33/5/1
f 37/5/1 36/5/1 35/5/1
f 38/5/1 36/5/1 37/5/1
f 41/5/1 40/5/1 39/5/1
f 42/5/1 40/5/1 41/5/1
f 45/5/1 44/5/1 43/5/1
f 46/5/1 44/5/1 45/5/1
f 49/5/1 48/5/1 47/5/1
f 50/5/1 48/5/1 49/5/1
f 53/5/1 52/5/1 51/5/1
f 54/5/1 52/5/1 53/5/1
f 57/5/1 56/5/1 55/5/1
f 58/5/1 56/5/1 57/5/1
f 61/3/1 60/3/1 59/3/1
f 62/3/1 60/3/1 61/3/1
f 66/6/1 64/6/1 63/6/1
f 67/6/1 64/6/1 66/6/1
f 69/5/1 66/5/1 65/5/1
f 70/5/1 66/5/1 69/5/1
f 73/5/1 68/5/1 67/5/1
f 74/5/1 68/5/1 73/5/1
f 75/5/1 72/5/1 71/5/1
f 76/5/1 72/5/1 75/5/1
f 79/5/1 78/5/1 77/5/1
f 80/5/1 78/5/1 79/5/1
f 83/5/1 82/5/1 81/5/1
f 84/5/1 82/5/1 83/5/1
f 87/4/1 86/4/1 85/4/1
f 88/4/1 86/4/1 87/4/1
f 91/5/1 90/5/1 89/5/1
f 92/5/1 90/5/1 91/5/1
f 95/7/1 94/7/1 93/7/1
f 96/7/1 94/7/1 95/7/1
f 99/3/1 98/3/1 97/3/1
f 100/3/1 98/3/1 99/3/1
f 103/1/1 102/1/1 101/1/1
f 104/1/1 102/1/1 103/1/1
f 105/5/2 106/5/2 107/5/2
f 107/5/2 106/5/2 108/5/2
f 109/5/2 110/5/2 111/5/2
f 111/5/2 110/5/2 112/5/2
f 113/5/2 114/5/2 115/5/2
f 115/5/2 114/5/2 116/5/2
f 117/1/2 118/1/2 119/1/2
f 119/1/2 118/1/2 120/1/2
f 121/5/2 122/5/2 123/5/2
f 123/5/2 122/5/2 124/5/2
f 125/5/2 126/5/2 127/5/2
f 127/5/2 126/5/2 128/5/2
f 129/5/2 130/5/2 133/5/2
f 133/5/2 130/5/2 134/5/2
f 131/5/2 132/5/2 135/5/2
f 135/5/2 132/5/2 136/5/2
f 134/5/2 135/5/2 137/5/2
f 137/5/2 135/5/2 138/5/2
f 139/5/2 140/5/2 141/5/2
f 141/5/2 140/5/2 142/5/2
f 143/5/2 144/5/2 145/5/2
f 145/5/2 144/5/2 146/5/2
f 147/5/2 148/5/2 149/5/2
f 149/5/2 148/5/2 150/5/2
f 151/5/2 152/5/2 153/5/2
f 153/5/2 152/5/2 154/5/2
f 155/5/2 156/5/2 157/5/2
f 157/5/2 156/5/2 158/5/2
f 159/5/2 160/5/2 161/5/2
f 161/5/2 160/5/2 162/5/2
f 163/5/2 164/5/2 165/5/2
f 165/5/2 164/5/2 166/5/2
f 167/3/2 168/3/2 169/3/2
f 169/3/2 168/3/2 170/3/2
f 171/5/2 172/5/2 173/5/2
f 173/5/2 172/5/2 174/5/2
f 175/6/2 176/6/2 178/6/2
f 178/6/2 176/6/2 179/6/2
f 177/5/2 178/5/2 181/5/2
f 181/5/2 178/5/2 182/5/2
f 179/5/2 180/5/2 185/5/2
f 185/5/2 180/5/2 186/5/2
f 183/5/2 184/5/2 187/5/2
f 187/5/2 184/5/2 188/5/2
f 189/5/2 190/5/2 191/5/2
f 191/5/2 190/5/2 192/5/2
f 193/3/2 194/3/2 195/3/2
f 195/3/2 194/3/2 196/3/2
f 197/3/2 198/3/2 199/3/2
f 199/3/2 198/3/2 200/3/2
f 201/7/2 202/7/2 203/7/2
f 203/7/2 202/7/2 204/7/2
f 205/4/2 206/4/2 207/4/2
f 207/4/2 206/4/2 208/4/2
f 209/1/2 210/1/2 211/1/2
f 211/1/2 210/1/2 212/1/2
f 217/3/3 214/3/3 213/3/3
f 218/3/3 214/3/3 217/3/3
f 221/3/3 216/3/3 215/3/3
f 222/3/3 216/3/3 221/3/3
f 223/3/3 220/3/3 219/3/3
f 224/3/3 220/3/3 223/3/3
f 227/1/3 226/1/3 225/1/3
f 228/1/3 226/1/3 227/1/3
f 229/1/3 226/1/3 228/1/3
f 230/1/3 226/1/3 229/1/3
f 231/2/3 230/2/3 229/2/3
f 232/2/3 230/2/3 231/2/3
f 233/1/3 227/1/3 225/1/3
f 234/1/3 227/1/3 233/1/3
f 235/2/3 228/2/3 227/2/3
f 236/2/3 228/2/3 235/2/3
f 237/2/3 231/2/3 229/2/3
f 238/2/3 230/2/3 232/2/3
f 239/1/3 226/1/3 230/1/3
f 241/4/3 240/4/3 239/4/3
f 243/2/3 237/2/3 229/2/3
f 243/1/3 229/1/3 228/1/3
f 243/2/3 238/2/3 237/2/3
f 244/1/3 239/1/3 230/1/3
f 244/2/3 238/2/3 243/2/3
f 244/2/3 230/2/3 238/2/3
f 245/1/3 243/1/3 228/1/3
f 245/1/3 244/1/3 243/1/3
f 246/1/3 239/1/3 244/1/3
f 246/1/3 244/1/3 245/1/3
f 247/2/3 246/2/3 245/2/3
f 248/2/3 246/2/3 247/2/3
f 249/7/3 242/7/3 241/7/3
f 249/4/3 241/4/3 239/4/3
f 250/7/3 242/7/3 249/7/3
f 251/2/3 235/2/3 227/2/3
f 252/2/3 228/2/3 236/2/3
f 253/4/3 249/4/3 239/4/3
f 253/8/3 250/8/3 249/8/3
f 254/8/3 250/8/3 253/8/3
f 256/1/3 227/1/3 234/1/3
f 257/2/3 247/2/3 245/2/3
f 258/2/3 246/2/3 248/2/3
f 259/4/3 253/4/3 239/4/3
f 259/7/3 254/7/3 253/7/3
f 260/7/3 254/7/3 259/7/3
f 261/1/3 239/1/3 246/1/3
f 261/4/3 259/4/3 239/4/3
f 262/4/3 259/4/3 261/4/3
f 263/1/3 256/1/3 255/1/3
f 263/2/3 251/2/3 227/2/3
f 263/2/3 252/2/3 251/2/3
f 263/1/3 227/1/3 256/1/3
f 264/1/3 245/1/3 228/1/3
f 264/2/3 252/2/3 263/2/3
f 264/2/3 228/2/3 252/2/3
f 265/2/3 257/2/3 245/2/3
f 265/1/3 245/1/3 264/1/3
f 265/2/3 258/2/3 257/2/3
f 266/1/3 261/1/3 246/1/3
f 266/2/3 258/2/3 265/2/3
f 266/2/3 246/2/3 258/2/3
f 267/1/3 264/1/3 263/1/3
f 267/1/3 263/1/3 255/1/3
f 267/1/3 266/1/3 265/1/3
f 267/1/3 265/1/3 264/1/3
f 268/1/3 261/1/3 266/1/3
f 268/1/3 266/1/3 267/1/3
f 271/5/3 270/5/3 269/5/3
f 272/5/3 270/5/3 271/5/3
f 275/5/3 274/5/3 273/5/3
f 276/5/3 274/5/3 275/5/3
f 279/5/3 278/5/3 277/5/3
f 280/5/3 278/5/3 279/5/3
f 283/5/3 281/5/3 280/5/3
f 284/5/3 281/5/3 283/5/3
f 285/5/3 283/5/3 282/5/3
f 286/5/3 283/5/3 285/5/3
f 290/5/3 288/5/3 287/5/3
f 291/5/3 288/5/3 290/5/3
f 292/6/3 290/6/3 289/6/3
f 293/6/3 290/6/3 292/6/3
f 295/5/3 294/5/3 293/5/3
f 296/5/3 294/5/3 295/5/3
f 300/5/3 298/5/3 297/5/3
f 301/5/3 298/5/3 300/5/3
f 302/5/3 298/5/3 301/5/3
f 303/5/3 298/5/3 302/5/3
f 306/5/3 300/5/3 299/5/3
f 306/5/3 301/5/3 300/5/3
f 307/5/3 301/5/3 306/5/3
f 308/5/3 301/5/3 307/5/3
f 309/5/3 303/5/3 302/5/3
f 309/5/3 304/5/3 303/5/3
f 310/5/3 304/5/3 309/5/3
f 311/5/3 304/5/3 310/5/3
f 313/5/3 307/5/3 306/5/3
f 313/5/3 306/5/3 305/5/3
f 314/5/3 307/5/3 313/5/3
f 315/5/3 312/5/3 311/5/3
f 315/5/3 311/5/3 310/5/3
f 316/5/3 312/5/3 315/5/3
f 317/5/3 312/5/3 316/5/3
f 319/5/3 318/5/3 317/5/3
f 319/5/3 317/5/3 316/5/3
f 320/5/3 318/5/3 319/5/3
f 321/5/3 318/5/3 320/5/3
f 323/5/3 322/5/3 321/5/3
f 323/5/3 321/5/3 320/5/3
f 324/5/3 322/5/3 323/5/3
f 325/5/3 322/5/3 324/5/3
f 327/5/3 326/5/3 325/5/3
f 327/5/3 325/5/3 324/5/3
f 328/5/3 326/5/3 327/5/3
f 332/5/3 326/5/3 328/5/3
f 333/5/3 330/5/3 329/5/3
f 334/5/3 332/5/3 331/5/3
f 335/5/3 326/5/3 332/5/3
f 335/5/3 332/5/3 334/5/3
f 336/5/3 326/5/3 335/5/3
f 337/5/3 333/5/3 329/5/3
f 337/5/3 334/5/3 333/5/3
f 337/5/3 335/5/3 334/5/3
f 338/5/3 335/5/3 337/5/3
f 339/5/3 337/5/3 329/5/3
f 340/5/3 337/5/3 339/5/3
f 343/5/3 342/5/3 341/5/3
f 345/5/3 343/5/3 341/5/3
f 345/5/3 344/5/3 343/5/3
f 346/5/3 344/5/3 345/5/3
f 347/5/4 348/5/4 349/5/4
f 347/5/4 349/5/4 351/5/4
f 349/5/4 350/5/4 351/5/4
f 351/5/4 350/5/4 352/5/4
f 353/5/4 354/5/4 356/5/4
f 356/5/4 354/5/4 357/5/4
f 357/5/4 354/5/4 358/5/4
f 358/5/4 354/5/4 359/5/4
f 355/5/4 356/5/4 362/5/4
f 356/5/4 357/5/4 362/5/4
f 362/5/4 357/5/4 363/5/4
f 363/5/4 357/5/4 364/5/4
f 358/5/4 359/5/4 365/5/4
f 359/5/4 360/5/4 365/5/4
f 365/5/4 360/5/4 366/5/4
f 366/5/4 360/5/4 367/5/4
f 362/5/4 363/5/4 369/5/4
f 361/5/4 362/5/4 369/5/4
f 369/5/4 363/5/4 370/5/4
f 367/5/4 368/5/4 371/5/4
f 366/5/4 367/5/4 371/5/4
f 371/5/4 368/5/4 372/5/4
f 372/5/4 368/5/4 373/5/4
f 373/5/4 374/5/4 375/5/4
f 372/5/4 373/5/4 375/5/4
f 375/5/4 374/5/4 376/5/4
f 376/5/4 374/5/4 377/5/4
f 377/5/4 378/5/4 379/5/4
f 376/5/4 377/5/4 379/5/4
f 379/5/4 378/5/4 380/5/4
f 380/5/4 378/5/4 381/5/4
f 381/5/4 382/5/4 383/5/4
f 380/5/4 381/5/4 383/5/4
f 383/5/4 382/5/4 384/5/4
f 384/5/4 382/5/4 388/5/4
f 385/5/4 386/5/4 389/5/4
f 387/5/4 388/5/4 390/5/4
f 388/5/4 382/5/4 391/5/4
f 390/5/4 388/5/4 391/5/4
f 391/5/4 382/5/4 392/5/4
f 385/5/4 389/5/4 393/5/4
f 389/5/4 390/5/4 393/5/4
f 390/5/4 391/5/4 393/5/4
f 393/5/4 391/5/4 394/5/4
f 385/5/4 393/5/4 395/5/4
f 395/5/4 393/5/4 396/5/4
f 397/5/4 398/5/4 399/5/4
f 399/5/4 398/5/4 400/5/4
f 400/5/4 401/5/4 403/5/4
f 403/5/4 401/5/4 404/5/4
f 402/5/4 403/5/4 405/5/4
f 405/5/4 403/5/4 406/5/4
f 407/5/4 408/5/4 410/5/4
f 410/5/4 408/5/4 411/5/4
f 409/6/4 410/6/4 412/6/4
f 412/6/4 410/6/4 413/6/4
f 413/5/4 414/5/4 415/5/4
f 415/5/4 414/5/4 416/5/4
f 417/5/4 418/5/4 419/5/4
f 419/5/4 418/5/4 420/5/4
f 421/5/4 422/5/4 423/5/4
f 423/5/4 422/5/4 424/5/4
f 425/4/4 426/4/4 427/4/4
f 425/4/4 427/4/4 429/4/4
f 427/7/4 428/7/4 429/7/4
f 429/7/4 428/7/4 430/7/4
f 425/4/4 429/4/4 431/4/4
f 429/8/4 430/8/4 431/8/4
f 431/8/4 430/8/4 432/8/4
f 425/4/4 431/4/4 433/4/4
f 431/7/4 432/7/4 433/7/4
f 433/7/4 432/7/4 434/7/4
f 425/4/4 433/4/4 435/4/4
f 435/4/4 433/4/4 436/4/4
f 437/1/4 438/1/4 439/1/4
f 439/1/4 438/1/4 440/1/4
f 440/1/4 438/1/4 442/1/4
f 441/1/4 442/1/4 443/1/4
f 442/1/4 438/1/4 444/1/4
f 443/1/4 442/1/4 444/1/4
f 449/1/5 446/1/5 445/1/5
f 450/1/5 446/1/5 449/1/5
f 451/1/5 448/1/5 447/1/5
f 452/1/5 448/1/5 451/1/5
f 455/1/5 454/1/5 453/1/5
f 456/1/5 454/1/5 455/1/5
f 459/3/5 458/3/5 457/3/5
f 460/3/5 458/3/5 459/3/5
f 465/3/5 462/3/5 461/3/5
f 466/3/5 462/3/5 465/3/5
f 467/3/5 464/3/5 463/3/5
f 468/3/5 464/3/5 467/3/5
f 471/5/5 470/5/5 469/5/5
f 472/5/5 470/5/5 471/5/5
f 475/5/5 474/5/5 473/5/5
f 476/5/5 474/5/5 475/5/5
f 481/5/5 480/5/5 479/5/5
f 482/5/5 480/5/5 481/5/5
f 483/6/5 478/6/5 477/6/5
f 484/6/5 478/6/5 483/6/5
f 488/5/5 486/5/5 485/5/5
f 489/5/5 486/5/5 488/5/5
f 493/5/5 492/5/5 491/5/5
f 494/5/5 492/5/5 493/5/5
f 495/5/5 488/5/5 487/5/5
f 496/5/5 488/5/5 495/5/5
f 497/5/5 490/5/5 489/5/5
f 498/5/5 490/5/5 497/5/5
f 499/5/5 497/5/5 496/5/5
f 500/5/5 497/5/5 499/5/5
f 503/5/5 502/5/5 501/5/5
f 504/5/5 502/5/5 503/5/5
f 509/5/5 506/5/5 505/5/5
f 510/5/5 506/5/5 509/5/5
f 511/5/5 508/5/5 507/5/5
f 512/5/5 508/5/5 511/5/5
f 515/5/5 514/5/5 513/5/5
f 516/5/5 514/5/5 515/5/5
f 521/5/5 518/5/5 517/5/5
f 522/5/5 518/5/5 521/5/5
f 523/5/5 520/5/5 519/5/5
f 524/5/5 520/5/5 523/5/5
f 527/5/5 526/5/5 525/5/5
f 528/5/5 526/5/5 527/5/5
f 529/3/6 530/3/6 531/3/6
f 531/3/6 530/3/6 532/3/6
f 533/3/6 534/3/6 537/3/6
f 537/3/6 534/3/6 538/3/6
f 535/3/6 536/3/6 539/3/6
f 539/3/6 536/3/6 540/3/6
f 541/1/6 542/1/6 545/1/6
f 545/1/6 542/1/6 546/1/6
f 541/1/6 545/1/6 547/1/6
f 547/1/6 545/1/6 548/1/6
f 546/1/6 542/1/6 549/1/6
f 549/1/6 542/1/6 550/1/6
f 541/1/6 547/1/6 551/1/6
f 550/1/6 542/1/6 554/1/6
f 551/1/6 552/1/6 555/1/6
f 553/1/6 554/1/6 556/1/6
f 554/1/6 542/1/6 557/1/6
f 555/1/6 556/1/6 557/1/6
f 556/1/6 554/1/6 557/1/6
f 543/1/6 544/1/6 558/1/6
f 555/1/6 557/1/6 559/1/6
f 557/1/6 558/1/6 559/1/6
f 551/1/6 555/1/6 559/1/6
f 541/1/6 551/1/6 559/1/6
f 558/1/6 544/1/6 560/1/6
f 559/1/6 558/1/6 560/1/6
f 565/5/6 566/5/6 568/5/6
f 568/5/6 566/5/6 569/5/6
f 567/5/6 568/5/6 571/5/6
f 571/5/6 568/5/6 572/5/6
f 569/5/6 570/5/6 573/5/6
f 573/5/6 570/5/6 574/5/6
f 572/5/6 573/5/6 575/5/6
f 575/5/6 573/5/6 576/5/6
f 561/4/6 562/4/6 577/4/6
f 577/4/6 562/4/6 578/4/6
f 563/4/6 564/4/6 579/4/6
f 579/4/6 564/4/6 580/4/6
f 585/5/6 586/5/6 587/5/6
f 587/5/6 586/5/6 588/5/6
f 585/5/6 587/5/6 589/5/6
f 588/5/6 586/5/6 590/5/6
f 585/5/6 589/5/6 591/5/6
f 589/5/6 590/5/6 591/5/6
f 590/5/6 586/5/6 592/5/6
f 591/5/6 590/5/6 592/5/6
f 581/7/6 582/7/6 593/7/6
f 582/8/6 583/8/6 594/8/6
f 593/7/6 582/7/6 594/7/6
f 583/7/6 584/7/6 595/7/6
f 594/8/6 583/8/6 595/8/6
f 595/7/6 584/7/6 596/7/6
f 597/5/6 598/5/6 599/5/6
f 599/5/6 598/5/6 600/5/6
f 601/5/6 602/5/6 603/5/6
f 603/5/6 602/5/6 604/5/6
f 605/5/6 606/5/6 609/5/6
f 609/5/6 606/5/6 610/5/6
f 607/6/6 608/6/6 611/6/6
f 611/6/6 608/6/6 612/6/6
f 613/5/6 614/5/6 615/5/6
f 615/5/6 614/5/6 616/5/6
f 617/5/6 618/5/6 620/5/6
f 620/5/6 618/5/6 621/5/6
f 619/5/6 620/5/6 623/5/6
f 621/5/6 622/5/6 623/5/6
f 620/5/6 621/5/6 623/5/6
f 623/5/6 622/5/6 624/5/6
f 619/5/6 623/5/6 625/5/6
f 624/5/6 622/5/6 626/5/6
f 619/5/6 625/5/6 627/5/6
f 625/5/6 626/5/6 627/5/6
f 627/5/6 626/5/6 628/5/6
f 626/5/6 622/5/6 629/5/6
f 628/5/6 626/5/6 629/5/6
f 629/5/6 622/5/6 630/5/6
f 628/5/6 629/5/6 631/5/6
f 631/5/6 629/5/6 632/5/6
f 633/5/6 634/5/6 639/5/6
f 639/5/6 634/5/6 640/5/6
f 635/5/6 636/5/6 641/5/6
f 641/5/6 636/5/6 642/5/6
f 637/5/6 638/5/6 643/5/6
f 643/5/6 638/5/6 644/5/6
f 645/5/6 646/5/6 647/5/6
f 647/5/6 646/5/6 648/5/6
f 649/5/6 650/5/6 653/5/6
f 653/5/6 650/5/6 654/5/6
f 651/5/6 652/5/6 655/5/6
f 655/5/6 652/5/6 656/5/6
f 657/5/6 658/5/6 659/5/6
f 659/5/6 658/5/6 660/5/6
